{"accessors":[{"bufferView":2,"componentType":5126,"count":213,"max":[0.9807900190353394,0,0.9238799810409546],"min":[-0.9807800054550171,-1,-1],"type":"VEC3"},{"bufferView":2,"byteOffset":2556,"componentType":5126,"count":213,"max":[0.9807885885238647,0,0.9217140674591064],"min":[-0.9807885885238647,-1,-1],"type":"VEC3"},{"bufferView":1,"componentType":5126,"count":213,"max":[0.7722799777984619,0.9171800017356873],"min":[0.20618000626564026,0.38541001081466675],"type":"VEC2"},{"bufferView":0,"componentType":5125,"count":1140,"max":[212],"min":[0],"type":"SCALAR"},{"bufferView":2,"byteOffset":5112,"componentType":5126,"count":313,"max":[1,1,1],"min":[-1,-0.39285001158714294,-1],"type":"VEC3"},{"bufferView":2,"byteOffset":8868,"componentType":5126,"count":313,"max":[1,1,1],"min":[-1,-0.3958011865615845,-1],"type":"VEC3"},{"bufferView":1,"byteOffset":1704,"componentType":5126,"count":313,"max":[0.7490500211715698,0.6965100169181824],"min":[0.24771000444889069,0.21636000275611877],"type":"VEC2"},{"bufferView":0,"byteOffset":4560,"componentType":5125,"count":1740,"max":[312],"min":[0],"type":"SCALAR"},{"bufferView":2,"byteOffset":12624,"componentType":5126,"count":257,"max":[1,0,1],"min":[-1,-1,-1],"type":"VEC3"},{"bufferView":2,"byteOffset":15708,"componentType":5126,"count":257,"max":[1,0,1],"min":[-1,-1,-1],"type":"VEC3"},{"bufferView":1,"byteOffset":4208,"componentType":5126,"count":257,"max":[0.6941699981689453,0.4624899923801422],"min":[0.366210013628006,0.09286999702453613],"type":"VEC2"},{"bufferView":0,"byteOffset":11520,"componentType":5125,"count":1440,"max":[256],"min":[0],"type":"SCALAR"},{"bufferView":2,"byteOffset":18792,"componentType":5126,"count":257,"max":[1,1,1],"min":[-1,0,-1],"type":"VEC3"},{"bufferView":2,"byteOffset":21876,"componentType":5126,"count":257,"max":[1,1,1],"min":[-1,0,-1],"type":"VEC3"},{"bufferView":1,"byteOffset":6264,"componentType":5126,"count":257,"max":[0,0],"min":[0,0],"type":"VEC2"},{"bufferView":0,"byteOffset":17280,"componentType":5125,"count":1440,"max":[256],"min":[0],"type":"SCALAR"},{"bufferView":2,"byteOffset":24960,"componentType":5126,"count":192,"max":[1,1,1],"min":[-1,-1,-1],"type":"VEC3"},{"bufferView":2,"byteOffset":27264,"componentType":5126,"count":192,"max":[0.9951844215393066,0.9951844215393066,1],"min":[-0.9951844215393066,-0.9951844215393066,-1],"type":"VEC3"},{"bufferView":1,"byteOffset":8320,"componentType":5126,"count":192,"max":[0.6862300038337708,0.9015499949455261],"min":[0.31376999616622925,-0.09613999724388123],"type":"VEC2"},{"bufferView":0,"byteOffset":23040,"componentType":5125,"count":372,"max":[191],"min":[0],"type":"SCALAR"},{"bufferView":2,"byteOffset":29568,"componentType":5126,"count":482,"max":[1,1,1],"min":[-1,-1,-1],"type":"VEC3"},{"bufferView":2,"byteOffset":35352,"componentType":5126,"count":482,"max":[1,1,1],"min":[-1,-1,-1],"type":"VEC3"},{"bufferView":0,"byteOffset":24528,"componentType":5125,"count":2880,"max":[481],"min":[0],"type":"SCALAR"},{"bufferView":2,"byteOffset":41136,"componentType":5126,"count":482,"max":[1,1,1],"min":[-1,-1,-1],"type":"VEC3"},{"bufferView":2,"byteOffset":46920,"componentType":5126,"count":482,"max":[1,1,1],"min":[-1,-1,-1],"type":"VEC3"},{"bufferView":1,"byteOffset":9856,"componentType":5126,"count":482,"max":[0,0],"min":[0,0],"type":"VEC2"},{"bufferView":0,"byteOffset":36048,"componentType":5125,"count":2880,"max":[481],"min":[0],"type":"SCALAR"},{"bufferView":2,"byteOffset":52704,"componentType":5126,"count":482,"max":[1,1,1],"min":[-1,-1,-1],"type":"VEC3"},{"bufferView":2,"byteOffset":58488,"componentType":5126,"count":482,"max":[1,1,1],"min":[-1,-1,-1],"type":"VEC3"},{"bufferView":1,"byteOffset":13712,"componentType":5126,"count":482,"max":[0,0],"min":[0,0],"type":"VEC2"},{"bufferView":0,"byteOffset":47568,"componentType":5125,"count":2880,"max":[481],"min":[0],"type":"SCALAR"},{"bufferView":2,"byteOffset":64272,"componentType":5126,"count":482,"max":[1,1,1],"min":[-1,-1,-1],"type":"VEC3"},{"bufferView":2,"byteOffset":70056,"componentType":5126,"count":482,"max":[1,1,1],"min":[-1,-1,-1],"type":"VEC3"},{"bufferView":0,"byteOffset":59088,"componentType":5125,"count":2880,"max":[481],"min":[0],"type":"SCALAR"},{"bufferView":2,"byteOffset":75840,"componentType":5126,"count":482,"max":[1,1,1],"min":[-1,-1,-1],"type":"VEC3"},{"bufferView":2,"byteOffset":81624,"componentType":5126,"count":482,"max":[1,1,1],"min":[-1,-1,-1],"type":"VEC3"},{"bufferView":0,"byteOffset":70608,"componentType":5125,"count":2880,"max":[481],"min":[0],"type":"SCALAR"},{"bufferView":2,"byteOffset":87408,"componentType":5126,"count":482,"max":[1,1,1],"min":[-1,-1,-1],"type":"VEC3"},{"bufferView":2,"byteOffset":93192,"componentType":5126,"count":482,"max":[1,1,1],"min":[-1,-1,-1],"type":"VEC3"},{"bufferView":1,"byteOffset":17568,"componentType":5126,"count":482,"max":[0,0],"min":[0,0],"type":"VEC2"},{"bufferView":0,"byteOffset":82128,"componentType":5125,"count":2880,"max":[481],"min":[0],"type":"SCALAR"},{"bufferView":2,"byteOffset":98976,"componentType":5126,"count":482,"max":[1,1,1],"min":[-1,-1,-1],"type":"VEC3"},{"bufferView":2,"byteOffset":104760,"componentType":5126,"count":482,"max":[1,1,1],"min":[-1,-1,-1],"type":"VEC3"},{"bufferView":1,"byteOffset":21424,"componentType":5126,"count":482,"max":[0,0],"min":[0,0],"type":"VEC2"},{"bufferView":0,"byteOffset":93648,"componentType":5125,"count":2880,"max":[481],"min":[0],"type":"SCALAR"},{"bufferView":2,"byteOffset":110544,"componentType":5126,"count":482,"max":[1,1,1],"min":[-1,-1,-1],"type":"VEC3"},{"bufferView":2,"byteOffset":116328,"componentType":5126,"count":482,"max":[1,1,1],"min":[-1,-1,-1],"type":"VEC3"},{"bufferView":0,"byteOffset":105168,"componentType":5125,"count":2880,"max":[481],"min":[0],"type":"SCALAR"},{"bufferView":2,"byteOffset":122112,"componentType":5126,"count":482,"max":[1,1,1],"min":[-1,-1,-1],"type":"VEC3"},{"bufferView":2,"byteOffset":127896,"componentType":5126,"count":482,"max":[1,1,1],"min":[-1,-1,-1],"type":"VEC3"},{"bufferView":0,"byteOffset":116688,"componentType":5125,"count":2880,"max":[481],"min":[0],"type":"SCALAR"},{"bufferView":2,"byteOffset":133680,"componentType":5126,"count":1984,"max":[1,1,1],"min":[-1,-1,-1],"type":"VEC3"},{"bufferView":2,"byteOffset":157488,"componentType":5126,"count":1984,"max":[0.9904383420944214,0.9904383420944214,0.9951387047767639],"min":[-0.9904383420944214,-0.9904383420944214,-0.9951387047767639],"type":"VEC3"},{"bufferView":1,"byteOffset":25280,"componentType":5126,"count":1984,"max":[0,0],"min":[0,0],"type":"VEC2"},{"bufferView":0,"byteOffset":128208,"componentType":5125,"count":2880,"max":[1983],"min":[0],"type":"SCALAR"}],"asset":{"extras":{"author":"piyushgautam.2802 (https://sketchfab.com/piyushgautam.2802)","license":"CC-BY-4.0 (http://creativecommons.org/licenses/by/4.0/)","source":"https://sketchfab.com/3d-models/famous-3december2020-famous-a763b34204574ed6b554103de0350e52","title":"Famous #3December2020-Famous"},"generator":"Sketchfab-9.94.0","version":"2.0"},"bufferViews":[{"buffer":0,"byteLength":139728,"byteOffset":0,"name":"floatBufferViews","target":34963},{"buffer":0,"byteLength":41152,"byteOffset":139728,"byteStride":8,"name":"floatBufferViews","target":34962},{"buffer":0,"byteLength":181296,"byteOffset":180880,"byteStride":12,"name":"floatBufferViews","target":34962}],"buffers":[{"byteLength":362176,"uri":"data:application/octet-stream;base64,"}],"images":[{"uri":"data:application/octet-stream;base64,"},{"uri":"data:application/octet-stream;base64,"},{"uri":"data:application/octet-stream;base64,"},{"uri":"data:application/octet-stream;base64,"}],"materials":[{"doubleSided":true,"emissiveFactor":[0,0,0],"name":"Material.003","pbrMetallicRoughness":{"baseColorFactor":[1,1,1,1],"baseColorTexture":{"index":0,"texCoord":0},"metallicFactor":0,"roughnessFactor":0.6}},{"doubleSided":true,"emissiveFactor":[0,0,0],"name":"fist","pbrMetallicRoughness":{"baseColorFactor":[0.800000011920929,0.800000011920929,0.800000011920929,1],"metallicFactor":0,"roughnessFactor":0.6}},{"doubleSided":true,"emissiveFactor":[0,0,0],"name":"material","pbrMetallicRoughness":{"baseColorFactor":[1,1,1,1],"baseColorTexture":{"index":1,"texCoord":0},"metallicFactor":0,"roughnessFactor":0.6}},{"doubleSided":true,"emissiveFactor":[0,0,0],"name":"hand","pbrMetallicRoughness":{"baseColorFactor":[1,1,1,1],"baseColorTexture":{"index":1,"texCoord":0},"metallicFactor":0,"roughnessFactor":0.6}},{"doubleSided":true,"emissiveFactor":[0,0,0],"name":"Material.006","pbrMetallicRoughness":{"baseColorFactor":[0.8829240202903748,0.8200787305831909,0.09723206609487534,1],"metallicFactor":0,"roughnessFactor":0.6}},{"doubleSided":true,"emissiveFactor":[0,0,0],"name":"Material.004","pbrMetallicRoughness":{"baseColorFactor":[1,1,1,1],"baseColorTexture":{"index":2,"texCoord":0},"metallicFactor":0,"roughnessFactor":0.6}},{"doubleSided":true,"emissiveFactor":[0,0,0],"name":"Material.005","pbrMetallicRoughness":{"baseColorFactor":[1,1,1,1],"baseColorTexture":{"index":1,"texCoord":0},"metallicFactor":0,"roughnessFactor":0.6}},{"doubleSided":true,"emissiveFactor":[0,0,0],"name":"Material.001","pbrMetallicRoughness":{"baseColorFactor":[1,1,1,1],"baseColorTexture":{"index":3,"texCoord":0},"metallicFactor":0,"roughnessFactor":0.6}},{"doubleSided":true,"emissiveFactor":[0,0,0],"name":"Material.002","pbrMetallicRoughness":{"baseColorFactor":[1,1,1,1],"baseColorTexture":{"index":1,"texCoord":0},"metallicFactor":0,"roughnessFactor":0.6}}],"meshes":[{"name":"Sphere_0","primitives":[{"attributes":{"NORMAL":1,"POSITION":0,"TEXCOORD_0":2},"indices":3,"material":7,"mode":4}]},{"name":"Sphere_1","primitives":[{"attributes":{"NORMAL":5,"POSITION":4,"TEXCOORD_0":6},"indices":7,"material":8,"mode":4}]},{"name":"Sphere.001_0","primitives":[{"attributes":{"NORMAL":9,"POSITION":8,"TEXCOORD_0":10},"indices":11,"material":5,"mode":4}]},{"name":"Sphere.001_1","primitives":[{"attributes":{"NORMAL":13,"POSITION":12,"TEXCOORD_0":14},"indices":15,"material":6,"mode":4}]},{"name":"Cylinder_0","primitives":[{"attributes":{"NORMAL":17,"POSITION":16,"TEXCOORD_0":18},"indices":19,"material":0,"mode":4}]},{"name":"Sphere.002_0","primitives":[{"attributes":{"NORMAL":21,"POSITION":20},"indices":22,"material":4,"mode":4}]},{"name":"Sphere.003_0","primitives":[{"attributes":{"NORMAL":24,"POSITION":23,"TEXCOORD_0":25},"indices":26,"material":3,"mode":4}]},{"name":"Sphere.004_0","primitives":[{"attributes":{"NORMAL":28,"POSITION":27,"TEXCOORD_0":29},"indices":30,"material":3,"mode":4}]},{"name":"Sphere.005_0","primitives":[{"attributes":{"NORMAL":32,"POSITION":31},"indices":33,"material":1,"mode":4}]},{"name":"Sphere.006_0","primitives":[{"attributes":{"NORMAL":35,"POSITION":34},"indices":36,"material":1,"mode":4}]},{"name":"Sphere.007_0","primitives":[{"attributes":{"NORMAL":38,"POSITION":37,"TEXCOORD_0":39},"indices":40,"material":2,"mode":4}]},{"name":"Sphere.008_0","primitives":[{"attributes":{"NORMAL":42,"POSITION":41,"TEXCOORD_0":43},"indices":44,"material":2,"mode":4}]},{"name":"Sphere.009_0","primitives":[{"attributes":{"NORMAL":46,"POSITION":45},"indices":47,"material":1,"mode":4}]},{"name":"Sphere.010_0","primitives":[{"attributes":{"NORMAL":49,"POSITION":48},"indices":50,"material":1,"mode":4}]},{"name":"Sphere.011_0","primitives":[{"attributes":{"NORMAL":52,"POSITION":51,"TEXCOORD_0":53},"indices":54,"material":0,"mode":4}]}],"nodes":[{"children":[1],"name":"RootNode (gltf orientation matrix)","rotation":[-0.7071067811865475,0,0,0.7071067811865476]},{"children":[2],"name":"RootNode (model correction matrix)"},{"children":[3,5,8,11,13,15,17,19,21,23,25,27,29,31],"name":"Root"},{"children":[4],"matrix":[0.6895500000000001,0.6496200000000002,-0.32017000000000007,0,-0.11198000000000001,0.53239,0.83906,0,0.71553,-0.54273,0.4398500000000001,0,4.076250000000001,-3.86956,5.167399999999999,1],"name":"Lamp"},{"name":"Lamp"},{"children":[6,7],"matrix":[1,0,0,0,0,1,0,0,0,0,1,0,0,0,2.42014,1],"name":"Sphere"},{"mesh":0,"name":"Sphere_0"},{"mesh":1,"name":"Sphere_1"},{"children":[9,10],"matrix":[0.78496,0,0,0,0,0.78496,0,0,0,0,0.8846500000000002,0,0,0,0.99229,1],"name":"Sphere.001"},{"mesh":2,"name":"Sphere.001_0"},{"mesh":3,"name":"Sphere.001_1"},{"children":[12],"matrix":[0.6936600000000002,0,0,0,0,0.6936600000000002,0,0,0,0,0.09474000000000003,0,0,0,1.59364,1],"name":"Cylinder"},{"mesh":4,"name":"Cylinder_0"},{"children":[14],"matrix":[0.14357,0,0,0,0,0.14357,0,0,0,0,0.14357,0,0,-0.7743599999999999,1.53388,1],"name":"Sphere.002"},{"mesh":5,"name":"Sphere.002_0"},{"children":[16],"matrix":[0.11644000000000002,0,0.11644000000000002,0,0,0.16467,0,0,-0.3830800000000001,0,0.3830800000000001,0,0.9412400000000001,0,1.06239,1],"name":"Sphere.003"},{"mesh":6,"name":"Sphere.003_0"},{"children":[18],"matrix":[0.11644000000000002,0,-0.11644000000000002,0,0,0.16467,0,0,0.3830800000000001,0,0.3830800000000001,0,-0.9412400000000001,0,1.06239,1],"name":"Sphere.004"},{"mesh":7,"name":"Sphere.004_0"},{"children":[20],"matrix":[0.21139000000000002,0,0,0,0,0.21139000000000002,0,0,0,0,0.21139000000000002,0,1.2857199999999998,0,0.7305200000000001,1],"name":"Sphere.005"},{"mesh":8,"name":"Sphere.005_0"},{"children":[22],"matrix":[0.21139000000000002,0,0,0,0,0.21139000000000002,0,0,0,0,0.21139000000000002,0,-1.2857199999999998,0,0.7305200000000001,1],"name":"Sphere.006"},{"mesh":9,"name":"Sphere.006_0"},{"children":[24],"matrix":[0.30850000000000005,0,0,0,0,0.35189000000000004,0,0,0,0,0.46493,0,-0.3133800000000001,0,0.36560000000000004,1],"name":"Sphere.007"},{"mesh":10,"name":"Sphere.007_0"},{"children":[26],"matrix":[0.30850000000000005,0,0,0,0,0.35189000000000004,0,0,0,0,0.46493,0,0.3133800000000001,0,0.36560000000000004,1],"name":"Sphere.008"},{"mesh":11,"name":"Sphere.008_0"},{"children":[28],"matrix":[0.3285700000000001,0,0,0,0,0.3285700000000001,0,0,0,0,0.16105000000000003,0,-0.3339800000000001,0,-0.07611000000000001,1],"name":"Sphere.009"},{"mesh":12,"name":"Sphere.009_0"},{"children":[30],"matrix":[0.3285700000000001,0,0,0,0,0.3285700000000001,0,0,0,0,0.16105000000000003,0,0.3339800000000001,0,-0.07611000000000001,1],"name":"Sphere.010"},{"mesh":13,"name":"Sphere.010_0"},{"children":[32],"matrix":[0.14287,0,0,0,0,0.14287,0,0,0,0,0.14287,0,0.05250000000000001,-0.91231,2.832239999999999,1],"name":"Sphere.011"},{"mesh":14,"name":"Sphere.011_0"}],"samplers":[{"magFilter":9729,"minFilter":9987,"wrapS":10497,"wrapT":10497}],"scene":0,"scenes":[{"name":"OSG_Scene","nodes":[0]}],"textures":[{"sampler":0,"source":0},{"sampler":0,"source":1},{"sampler":0,"source":2},{"sampler":0,"source":3}]}